<?xml version="1.0" encoding="utf-8"?>
<!-- Generator: Adobe Illustrator 18.1.0, SVG Export Plug-In . SVG Version: 6.00 Build 0)  -->
<svg version="1.1" id="Layer_1" xmlns="http://www.w3.org/2000/svg" xmlns:xlink="http://www.w3.org/1999/xlink" x="0px" y="0px"
	 viewBox="0 0 762 454.2" enable-background="new 0 0 762 454.2" xml:space="preserve">
<path d="M187.6,339.5c-4.2,0-1.3-0.1-5.2-0.1c-48.3,0-84.5-33.2-84.5-126V76.6c0-46.9,20.8-64.7,50.1-64.7V6.3H0v5.5
	c25.7,0.5,35,22.4,35,51.1v134.9c0,101.6,48.6,147.5,136.8,147.5c1,0,3.1,0,3.1,0l0,0h12.6L187.6,339.5z"/>
<path fill="#E6007E" d="M485,245.1c-0.6-50.9-12.1-61.9-62.9-62.4v-5c50.9-0.5,62.3-11.4,62.9-62.4h4.8c0.6,50.9,12,61.8,62.9,62.3
	v5.1c-50.9,0.5-62.3,11.4-62.9,62.4h-4.4H485z"/>
<path d="M212.1,339.5c46,0,66.3-31.3,66.3-75.4c0-52.9,0,0,0,0l0-192.1c0-45.1-22.6-60.1-50-60.1l0-5.6h261.5l0.1,71l-4.6,0
	c-7.8-41.7-24.1-58-77.1-58c0,0-8.9,0-12.3,0c-49.9,0-59.7,15.9-59.7,60.6c0,12.8,0,41.5,0,41.5c0,54.1,22.1,56.4,63.8,56.4v5.1
	c-41.7,0-63.8,4.5-63.8,59.2v17.8c0,67,8.5,71.4,64.7,71.4c33.3,0,73.8-8.5,84.3-54.4l4.8,0v68.5H212.1V339.5z"/>
<path d="M582.9,339.5c46,0,57.6-29.7,36.7-76.2L549.2,87.1L569.6,0l3.9,0c0,0,96.9,230,120.9,276.5c25.4,49.1,46.7,63,67.7,63v5.7
	H582.9V339.5L582.9,339.5z"/>
<g>
	<path d="M53.8,443.1c-12.1,0-19.4-8.7-19.4-23.4v-29.9h7.5v29.5c0,11,5,15.9,12.1,15.9c7,0,11.8-4.8,11.8-15.5v-29.9h7.5v29.5
		C73.3,434.2,66,443.1,53.8,443.1"/>
	<path d="M111.7,441.9h-7.3v-23.2c0-6.6-2.8-10.1-7.5-10.1c-4.9,0-8.8,4-8.8,10.5v22.8h-7.3v-39.9h6.9v5.6c2.3-4.3,6-6.5,10.7-6.5
		c8.1,0,13.3,6.3,13.3,16.1V441.9L111.7,441.9L111.7,441.9z"/>
	<path d="M128.4,441.9h-7.3v-39.9h7.3V441.9L128.4,441.9 M128.3,397.3h-7.2v-7.4h7.2V397.3L128.3,397.3L128.3,397.3z"/>
	<polygon points="154.5,442.2 148.1,442.2 133.8,402.1 141.5,402.1 151.3,431.9 161.2,402.1 168.8,402.1 154.5,442.2 154.5,442.2 	
		"/>
	<path d="M188.3,442.9c-10.2,0-17.7-9-17.7-20.8c0-11.9,7.4-20.8,17.1-20.8c9.6,0,16.4,8.5,16.4,21.1c0,0.5,0,1.2-0.1,2.1l0,0.9
		h-25.8c0.8,7.2,5.2,10.8,10.3,10.8c3.2,0,6.7-1.3,9.7-5l0.3-0.3l0.3,0.3l3.7,3.7l0.3,0.3l-0.3,0.4
		C198.8,440.5,194.2,442.9,188.3,442.9 M178.2,418.8h18.5c-0.6-6-3.7-10.6-9.1-10.6C182.4,408.1,178.8,413,178.2,418.8z"/>
	<path d="M217.7,441.9h-7.2v-39.9h7v8.6c2.4-6.2,6.7-9.2,12-9.2c0.2,0,1,0,1,0v8.6h-0.8c-6.6,0-12,5.2-12,16V441.9L217.7,441.9
		L217.7,441.9z"/>
	<path d="M246.3,442.7c-4.4,0-9.4-1.8-13.3-5.4l-0.3-0.3l3.3-5.7l0.4,0.3c3.7,3.2,6.9,4.5,10.7,4.5c3.9,0,6.2-1.9,6.2-4.9
		c0-3.2-2.5-4.3-7.1-5.8c-4.8-1.6-11.5-3.9-11.5-12.2c0-7,5.7-11.8,12.7-11.8c4.2,0,8.2,1.2,11.8,4l0.3,0.3l-3,6l-0.4-0.3
		c-3.2-2.4-6.8-3.3-9.1-3.3c-3.6,0-5.7,1.9-5.7,4.4c0,3.1,2,3.9,7.9,5.7c6.5,2,10.5,5.8,10.5,12.2
		C259.9,437.8,254.3,442.7,246.3,442.7"/>
	<path d="M314,454.2c-4.9,0-9.5-3.4-9.5-3.4l2.4-6.7c0,0,3.8,2.8,6.6,2.8c3.9,0,5.7-2.4,7.1-6.5l-15.2-38.4h7.9l10.8,28.5l8.9-28.5
		h7.7l-14.4,40.9c-2.8,7.3-6.8,11.3-12.2,11.3"/>
	<path d="M370.1,442.7c-10,0-18.2-9.1-18.2-20.7c0-11.8,8.2-21,18.3-21c10.1,0,18.3,9.1,18.3,20.7
		C388.5,433.6,380.2,442.7,370.1,442.7 M370.1,408.4c-5.6,0-10.8,5.1-10.8,13.4c0,8.4,5.2,13.7,10.9,13.7c5.7,0,10.9-5.1,10.9-13.4
		C381.1,414.5,376.3,408.4,370.1,408.4"/>
	<path d="M403.1,441.9h-7.4v-32.7h-4.6V402h4.6v-2.6c0-9.7,7.5-11.7,10.9-11.7c2.6,0,4.3,0.5,5.7,1l0.3,0.1v7.2l-0.4-0.2
		c-1.1-0.5-2.9-1-4.1-1c-3.7,0-5.1,2-5.1,5.3v1.8h9.5v7.1h-9.4V441.9L403.1,441.9L403.1,441.9z"/>
	<polygon points="463.2,441.9 431,441.9 431,389.8 462.9,389.8 462.9,397.3 438.6,397.3 438.6,410.8 459.9,410.8 459.9,418.4 
		438.6,418.4 438.6,434.4 463.2,434.4 463.2,441.9 463.2,441.9 	"/>
	<path d="M480.6,442.6c-6.5,0-13.3-4.1-13.3-12.9c0-8.4,6.2-14.1,15.5-14.1c3.6,0,6.6,0.8,8.3,1.5v-0.6c0-4.2-2.1-8.1-7.9-8.1
		c-4.2,0-8.1,1.5-11.3,3.6l-0.4,0.3l-2.1-6.9l0.3-0.3c3.1-2,8.3-4,13.6-4c4.8,0,8.8,1.5,11.3,4.4c2.4,2.8,3.8,6.7,3.8,11.8v24.4H492
		v-5.1C490.6,439.6,486.4,442.6,480.6,442.6 M474.7,429.5c0,4.1,3,6.3,6.9,6.3c6.2,0,9.7-4.5,9.7-9.6v-2.2c-1.6-1-4.5-1.7-7.7-1.7
		C479.1,422.4,474.7,424.6,474.7,429.5z"/>
	<path d="M617.3,441.9h-8.1l-4.9-13.2h-21.7l-4.9,13.2h-8l20.9-52.1h5.8L617.3,441.9L617.3,441.9 M601.4,421.2l-8.1-20.5l-8,20.5
		L601.4,421.2z"/>
	<path d="M675.2,454.1c-5.8,0-11-1.8-15.6-5.5l-0.3-0.3l3.1-6.6l0.4,0.3c3.8,3.2,8.1,4.9,12.7,4.9c7.5,0,11-5.2,11-12.2v-3.2
		c-2.3,4.9-7.3,7.3-12.3,7.3c-8,0-16.3-7-16.3-18.7c0-12,8.3-19,16.3-19c5.1,0,10.3,2.4,12.7,6.9V402h6.5v32.6
		c0,6-1.5,10.7-4.4,14.1C685.9,452.2,680.8,454.1,675.2,454.1 M675.1,408.5c-5.3,0-9.8,4.1-9.8,11.4c0,7.3,4.7,11.7,9.8,11.7
		c5.7,0,10.7-4.7,10.7-11.5C685.8,412,680.4,408.5,675.1,408.5"/>
	<polygon points="708.8,441.9 701.5,441.9 701.5,389.9 708.8,389.9 708.8,441.9 708.8,441.9 	"/>
	<path d="M295.3,442.7c-6.4,0-10.3-4.1-10.3-11.5v-21.8h-4.7v-7.3l4.6,0l0-11.1h7.4v11.1h9.9v7.3h-9.9v19.9c0,3.8,1.3,6,4.4,6
		c1.7,0,3.3-0.4,4.5-1.1l0.6-0.3l0,7l-0.3,0.1C299.6,442.1,297.6,442.7,295.3,442.7"/>
	<path d="M548.9,442.5c-6.4,0-10.3-4.1-10.3-11.5v-21.8h-4.7V402l4.6,0l0-11.1h7.5V402h9.9v7.3h-9.9v19.9c0,3.7,1.3,6,4.4,6
		c1.7,0,3.3-0.4,4.5-1.1l0.6-0.3l0,7l-0.3,0.1C553.2,442,551.2,442.5,548.9,442.5"/>
	<path d="M652,441.9h-7.3v-23.2c0-6.6-2.8-10.1-7.5-10.1c-4.9,0-8.8,4-8.8,10.5v22.8h-7.3V402h6.9v5.6c2.3-4.3,6-6.5,10.7-6.5
		c8.1,0,13.3,6.3,13.3,16.1V441.9L652,441.9L652,441.9z"/>
	<path d="M274.1,442h-7.3v-40h7.3V442L274.1,442 M274.1,397.3h-7.2v-7.4h7.2V397.3L274.1,397.3L274.1,397.3z"/>
	<path d="M724.7,441.9h-7.3V402h7.3V441.9L724.7,441.9 M724.6,397.3h-7.2V390h7.2V397.3L724.6,397.3L724.6,397.3z"/>
	<path d="M516.6,442.5c-4.4,0-9.4-1.8-13.3-5.4l-0.3-0.3l3.3-5.7l0.4,0.3c3.7,3.2,6.9,4.5,10.7,4.5c3.9,0,6.2-1.9,6.2-4.9
		c0-3.2-2.5-4.3-7.1-5.8c-4.8-1.6-11.4-3.9-11.4-12.2c0-7,5.7-11.8,12.7-11.8c4.2,0,8.2,1.2,11.8,4l0.3,0.3l-3,6l-0.3-0.3
		c-3.2-2.4-6.8-3.3-9.1-3.3c-3.6,0-5.7,1.9-5.7,4.4c0,3.1,2,3.9,7.9,5.7c6.5,2,10.6,5.8,10.6,12.3
		C530.2,437.6,524.6,442.5,516.6,442.5"/>
	<path d="M744.2,442.8c-6.4,0-13.3-4.1-13.3-12.9c0-8.4,6.2-14.1,15.5-14.1c3.6,0,6.6,0.8,8.3,1.5v-0.6c0-4.2-2.1-8.1-8-8.1
		c-4.2,0-8.1,1.5-11.3,3.6l-0.4,0.3l-2.1-6.9l0.3-0.3c3.1-2.1,8.3-4,13.6-4c4.8,0,8.8,1.5,11.3,4.4c2.4,2.8,3.8,6.7,3.8,11.8v24.3
		h-6.4V437C754.2,439.7,750,442.8,744.2,442.8 M738.3,429.7c0,4.1,3,6.3,6.9,6.3c6.2,0,9.7-4.4,9.7-9.5v-2.2c-1.6-1-4.5-1.7-7.7-1.7
		C742.7,422.5,738.3,424.8,738.3,429.7z"/>
</g>
</svg>
